<svg xmlns="http://www.w3.org/2000/svg" xmlns:xlink="http://www.w3.org/1999/xlink" contentStyleType="text/css" data-diagram-type="CLASS" height="373px" preserveAspectRatio="none" style="width:1167px;height:373px;background:#FFFFFF;" version="1.1" viewBox="0 0 1167 373" width="1167px" zoomAndPan="magnify"><defs/><g><!--class User--><g id="elem_User"><rect codeLine="1" fill="#F1F1F1" height="162.0781" id="User" rx="2.5" ry="2.5" style="stroke:#181818;stroke-width:0.5;" width="173.0684" x="78.24" y="15"/><ellipse cx="144.5691" cy="31" fill="#ADD1B2" rx="11" ry="11" style="stroke:#181818;stroke-width:1;"/><path d="M148.6785,37 L140.9597,37 L140.9597,24.6094 L148.6785,24.6094 L148.6785,26.7656 L143.4129,26.7656 L143.4129,29.4375 L148.1785,29.4375 L148.1785,31.5938 L143.4129,31.5938 L143.4129,34.8438 L148.6785,34.8438 L148.6785,37 Z " fill="#000000"/><text fill="#000000" font-family="sans-serif" font-size="14" lengthAdjust="spacing" textLength="31.9102" x="165.0691" y="35.8467">User</text><line style="stroke:#181818;stroke-width:0.5;" x1="79.24" x2="250.3084" y1="47" y2="47"/><ellipse cx="89.24" cy="60.6484" fill="#000000" rx="3" ry="3" style="stroke:#000000;stroke-width:1;"/><text fill="#000000" font-family="sans-serif" font-size="14" lengthAdjust="spacing" textLength="146.3574" x="98.24" y="63.9951">id: uuid &#171;generated&#187;</text><line style="stroke:#181818;stroke-width:1;" x1="79.24" x2="250.3084" y1="71.2969" y2="71.2969"/><ellipse cx="89.24" cy="84.9453" fill="#000000" rx="3" ry="3" style="stroke:#000000;stroke-width:1;"/><text fill="#000000" font-family="sans-serif" font-size="14" lengthAdjust="spacing" textLength="89.0586" x="98.24" y="88.292">name: string</text><ellipse cx="89.24" cy="101.2422" fill="#000000" rx="3" ry="3" style="stroke:#000000;stroke-width:1;"/><text fill="#000000" font-family="sans-serif" font-size="14" lengthAdjust="spacing" textLength="92.3535" x="98.24" y="104.5889">address: text</text><ellipse cx="89.24" cy="117.5391" fill="#000000" rx="3" ry="3" style="stroke:#000000;stroke-width:1;"/><text fill="#000000" font-family="sans-serif" font-size="14" lengthAdjust="spacing" textLength="114.8848" x="98.24" y="120.8857">description: text</text><ellipse cx="89.24" cy="133.8359" fill="#000000" rx="3" ry="3" style="stroke:#000000;stroke-width:1;"/><text fill="#000000" font-family="sans-serif" font-size="14" lengthAdjust="spacing" textLength="93.167" x="98.24" y="137.1826">phone: string</text><ellipse cx="89.24" cy="150.1328" fill="#000000" rx="3" ry="3" style="stroke:#000000;stroke-width:1;"/><text fill="#000000" font-family="sans-serif" font-size="14" lengthAdjust="spacing" textLength="147.0684" x="98.24" y="153.4795">created_at: datetime</text><ellipse cx="89.24" cy="166.4297" fill="#000000" rx="3" ry="3" style="stroke:#000000;stroke-width:1;"/><text fill="#000000" font-family="sans-serif" font-size="14" lengthAdjust="spacing" textLength="66.7871" x="98.24" y="169.7764">role: Role</text></g><!--class Role--><g id="elem_Role"><rect codeLine="12" fill="#F1F1F1" height="80.5938" id="Role" rx="2.5" ry="2.5" style="stroke:#181818;stroke-width:0.5;" width="123.4805" x="7" y="269.2"/><ellipse cx="49.3081" cy="285.2" fill="#EB937F" rx="11" ry="11" style="stroke:#181818;stroke-width:1;"/><path d="M53.4174,291.2 L45.6987,291.2 L45.6987,278.8094 L53.4174,278.8094 L53.4174,280.9656 L48.1518,280.9656 L48.1518,283.6375 L52.9174,283.6375 L52.9174,285.7938 L48.1518,285.7938 L48.1518,289.0438 L53.4174,289.0438 L53.4174,291.2 Z " fill="#000000"/><text fill="#000000" font-family="sans-serif" font-size="14" lengthAdjust="spacing" textLength="30.7959" x="69.3765" y="290.0467">Role</text><line style="stroke:#181818;stroke-width:0.5;" x1="8" x2="129.4805" y1="301.2" y2="301.2"/><text fill="#000000" font-family="sans-serif" font-size="14" lengthAdjust="spacing" textLength="111.4805" x="13" y="318.1951">REGULAR_USER</text><text fill="#000000" font-family="sans-serif" font-size="14" lengthAdjust="spacing" textLength="65.3174" x="13" y="334.492">SUPPORT</text><line style="stroke:#181818;stroke-width:0.5;" x1="8" x2="129.4805" y1="341.7938" y2="341.7938"/></g><!--class House--><g id="elem_House"><rect codeLine="17" fill="#F1F1F1" height="113.1875" id="House" rx="2.5" ry="2.5" style="stroke:#181818;stroke-width:0.5;" width="172.3574" x="173.74" y="253"/><ellipse cx="233.7322" cy="269" fill="#ADD1B2" rx="11" ry="11" style="stroke:#181818;stroke-width:1;"/><path d="M237.8416,275 L230.1228,275 L230.1228,262.6094 L237.8416,262.6094 L237.8416,264.7656 L232.5759,264.7656 L232.5759,267.4375 L237.3416,267.4375 L237.3416,269.5938 L232.5759,269.5938 L232.5759,272.8438 L237.8416,272.8438 L237.8416,275 Z " fill="#000000"/><text fill="#000000" font-family="sans-serif" font-size="14" lengthAdjust="spacing" textLength="43.873" x="254.2322" y="273.8467">House</text><line style="stroke:#181818;stroke-width:0.5;" x1="174.74" x2="345.0974" y1="285" y2="285"/><ellipse cx="184.74" cy="298.6484" fill="#000000" rx="3" ry="3" style="stroke:#000000;stroke-width:1;"/><text fill="#000000" font-family="sans-serif" font-size="14" lengthAdjust="spacing" textLength="146.3574" x="193.74" y="301.9951">id: uuid &#171;generated&#187;</text><line style="stroke:#181818;stroke-width:1;" x1="174.74" x2="345.0974" y1="309.2969" y2="309.2969"/><ellipse cx="184.74" cy="322.9453" fill="#000000" rx="3" ry="3" style="stroke:#000000;stroke-width:1;"/><text fill="#000000" font-family="sans-serif" font-size="14" lengthAdjust="spacing" textLength="128.8164" x="193.74" y="326.292">user_id: uuid &#171;FK&#187;</text><ellipse cx="184.74" cy="339.2422" fill="#000000" rx="3" ry="3" style="stroke:#000000;stroke-width:1;"/><text fill="#000000" font-family="sans-serif" font-size="14" lengthAdjust="spacing" textLength="104.665" x="193.74" y="342.5889">address: string</text><ellipse cx="184.74" cy="355.5391" fill="#000000" rx="3" ry="3" style="stroke:#000000;stroke-width:1;"/><text fill="#000000" font-family="sans-serif" font-size="14" lengthAdjust="spacing" textLength="114.8848" x="193.74" y="358.8857">description: text</text></g><!--class Device--><g id="elem_Device"><rect codeLine="26" fill="#F1F1F1" height="178.375" id="Device" rx="2.5" ry="2.5" style="stroke:#181818;stroke-width:0.5;" width="187.4717" x="564.24" y="7"/><ellipse cx="629.7864" cy="23" fill="#ADD1B2" rx="11" ry="11" style="stroke:#181818;stroke-width:1;"/><path d="M633.8958,29 L626.177,29 L626.177,16.6094 L633.8958,16.6094 L633.8958,18.7656 L628.6301,18.7656 L628.6301,21.4375 L633.3958,21.4375 L633.3958,23.5938 L628.6301,23.5938 L628.6301,26.8438 L633.8958,26.8438 L633.8958,29 Z " fill="#000000"/><text fill="#000000" font-family="sans-serif" font-size="14" lengthAdjust="spacing" textLength="47.8789" x="650.2864" y="27.8467">Device</text><line style="stroke:#181818;stroke-width:0.5;" x1="565.24" x2="750.7117" y1="39" y2="39"/><ellipse cx="575.24" cy="52.6484" fill="#000000" rx="3" ry="3" style="stroke:#000000;stroke-width:1;"/><text fill="#000000" font-family="sans-serif" font-size="14" lengthAdjust="spacing" textLength="146.3574" x="584.24" y="55.9951">id: uuid &#171;generated&#187;</text><line style="stroke:#181818;stroke-width:1;" x1="565.24" x2="750.7117" y1="63.2969" y2="63.2969"/><ellipse cx="575.24" cy="76.9453" fill="#000000" rx="3" ry="3" style="stroke:#000000;stroke-width:1;"/><text fill="#000000" font-family="sans-serif" font-size="14" lengthAdjust="spacing" textLength="140.499" x="584.24" y="80.292">house_id: uuid &#171;FK&#187;</text><ellipse cx="575.24" cy="93.2422" fill="#000000" rx="3" ry="3" style="stroke:#000000;stroke-width:1;"/><text fill="#000000" font-family="sans-serif" font-size="14" lengthAdjust="spacing" textLength="147.0684" x="584.24" y="96.5889">created_at: datetime</text><ellipse cx="575.24" cy="109.5391" fill="#000000" rx="3" ry="3" style="stroke:#000000;stroke-width:1;"/><text fill="#000000" font-family="sans-serif" font-size="14" lengthAdjust="spacing" textLength="151.6484" x="584.24" y="112.8857">updated_at: datetime</text><ellipse cx="575.24" cy="125.8359" fill="#000000" rx="3" ry="3" style="stroke:#000000;stroke-width:1;"/><text fill="#000000" font-family="sans-serif" font-size="14" lengthAdjust="spacing" textLength="161.4717" x="584.24" y="129.1826">type: DeviceType &#171;FK&#187;</text><ellipse cx="575.24" cy="142.1328" fill="#000000" rx="3" ry="3" style="stroke:#000000;stroke-width:1;"/><text fill="#000000" font-family="sans-serif" font-size="14" lengthAdjust="spacing" textLength="149.0166" x="584.24" y="145.4795">serial_number: string</text><ellipse cx="575.24" cy="158.4297" fill="#000000" rx="3" ry="3" style="stroke:#000000;stroke-width:1;"/><text fill="#000000" font-family="sans-serif" font-size="14" lengthAdjust="spacing" textLength="144.6758" x="584.24" y="161.7764">status: DeviceStatus</text><ellipse cx="575.24" cy="174.7266" fill="#000000" rx="3" ry="3" style="stroke:#000000;stroke-width:1;"/><text fill="#000000" font-family="sans-serif" font-size="14" lengthAdjust="spacing" textLength="114.8848" x="584.24" y="178.0732">description: text</text></g><!--class DeviceType--><g id="elem_DeviceType"><rect codeLine="38" fill="#F1F1F1" height="96.8906" id="DeviceType" rx="2.5" ry="2.5" style="stroke:#181818;stroke-width:0.5;" width="172.3574" x="388.56" y="261.05"/><ellipse cx="429.7237" cy="277.05" fill="#ADD1B2" rx="11" ry="11" style="stroke:#181818;stroke-width:1;"/><path d="M433.8331,283.05 L426.1143,283.05 L426.1143,270.6594 L433.8331,270.6594 L433.8331,272.8156 L428.5675,272.8156 L428.5675,275.4875 L433.3331,275.4875 L433.3331,277.6438 L428.5675,277.6438 L428.5675,280.8938 L433.8331,280.8938 L433.8331,283.05 Z " fill="#000000"/><text fill="#000000" font-family="sans-serif" font-size="14" lengthAdjust="spacing" textLength="82.2158" x="449.5379" y="281.8967">DeviceType</text><line style="stroke:#181818;stroke-width:0.5;" x1="389.56" x2="559.9174" y1="293.05" y2="293.05"/><ellipse cx="399.56" cy="306.6984" fill="#000000" rx="3" ry="3" style="stroke:#000000;stroke-width:1;"/><text fill="#000000" font-family="sans-serif" font-size="14" lengthAdjust="spacing" textLength="146.3574" x="408.56" y="310.0451">id: uuid &#171;generated&#187;</text><line style="stroke:#181818;stroke-width:1;" x1="389.56" x2="559.9174" y1="317.3469" y2="317.3469"/><ellipse cx="399.56" cy="330.9953" fill="#000000" rx="3" ry="3" style="stroke:#000000;stroke-width:1;"/><text fill="#000000" font-family="sans-serif" font-size="14" lengthAdjust="spacing" textLength="68.3184" x="408.56" y="334.342">type: text</text><ellipse cx="399.56" cy="347.2922" fill="#000000" rx="3" ry="3" style="stroke:#000000;stroke-width:1;"/><text fill="#000000" font-family="sans-serif" font-size="14" lengthAdjust="spacing" textLength="114.8848" x="408.56" y="350.6389">description: text</text></g><!--class DeviceStatus--><g id="elem_DeviceStatus"><rect codeLine="45" fill="#F1F1F1" height="96.8906" id="DeviceStatus" rx="2.5" ry="2.5" style="stroke:#181818;stroke-width:0.5;" width="124.4902" x="595.5" y="261.05"/><ellipse cx="610.5" cy="277.05" fill="#EB937F" rx="11" ry="11" style="stroke:#181818;stroke-width:1;"/><path d="M614.6094,283.05 L606.8906,283.05 L606.8906,270.6594 L614.6094,270.6594 L614.6094,272.8156 L609.3438,272.8156 L609.3438,275.4875 L614.1094,275.4875 L614.1094,277.6438 L609.3438,277.6438 L609.3438,280.8938 L614.6094,280.8938 L614.6094,283.05 Z " fill="#000000"/><text fill="#000000" font-family="sans-serif" font-size="14" lengthAdjust="spacing" textLength="92.4902" x="624.5" y="281.8967">DeviceStatus</text><line style="stroke:#181818;stroke-width:0.5;" x1="596.5" x2="718.9902" y1="293.05" y2="293.05"/><text fill="#000000" font-family="sans-serif" font-size="14" lengthAdjust="spacing" textLength="65.9258" x="601.5" y="310.0451">ENABLED</text><text fill="#000000" font-family="sans-serif" font-size="14" lengthAdjust="spacing" textLength="70.4033" x="601.5" y="326.342">DISABLED</text><text fill="#000000" font-family="sans-serif" font-size="14" lengthAdjust="spacing" textLength="67.0059" x="601.5" y="342.6389">BLOCKED</text><line style="stroke:#181818;stroke-width:0.5;" x1="596.5" x2="718.9902" y1="349.9406" y2="349.9406"/></g><!--class DeviceEvent--><g id="elem_DeviceEvent"><rect codeLine="51" fill="#F1F1F1" height="113.1875" id="DeviceEvent" rx="2.5" ry="2.5" style="stroke:#181818;stroke-width:0.5;" width="173.0684" x="763.24" y="253"/><ellipse cx="802.1274" cy="269" fill="#ADD1B2" rx="11" ry="11" style="stroke:#181818;stroke-width:1;"/><path d="M806.2367,275 L798.518,275 L798.518,262.6094 L806.2367,262.6094 L806.2367,264.7656 L800.9711,264.7656 L800.9711,267.4375 L805.7367,267.4375 L805.7367,269.5938 L800.9711,269.5938 L800.9711,272.8438 L806.2367,272.8438 L806.2367,275 Z " fill="#000000"/><text fill="#000000" font-family="sans-serif" font-size="14" lengthAdjust="spacing" textLength="87.9854" x="821.4357" y="273.8467">DeviceEvent</text><line style="stroke:#181818;stroke-width:0.5;" x1="764.24" x2="935.3084" y1="285" y2="285"/><ellipse cx="774.24" cy="298.6484" fill="#000000" rx="3" ry="3" style="stroke:#000000;stroke-width:1;"/><text fill="#000000" font-family="sans-serif" font-size="14" lengthAdjust="spacing" textLength="146.3574" x="783.24" y="301.9951">id: uuid &#171;generated&#187;</text><line style="stroke:#181818;stroke-width:1;" x1="764.24" x2="935.3084" y1="309.2969" y2="309.2969"/><ellipse cx="774.24" cy="322.9453" fill="#000000" rx="3" ry="3" style="stroke:#000000;stroke-width:1;"/><text fill="#000000" font-family="sans-serif" font-size="14" lengthAdjust="spacing" textLength="144.2656" x="783.24" y="326.292">device_id: uuid &#171;FK&#187;</text><ellipse cx="774.24" cy="339.2422" fill="#000000" rx="3" ry="3" style="stroke:#000000;stroke-width:1;"/><text fill="#000000" font-family="sans-serif" font-size="14" lengthAdjust="spacing" textLength="147.0684" x="783.24" y="342.5889">created_at: datetime</text><ellipse cx="774.24" cy="355.5391" fill="#000000" rx="3" ry="3" style="stroke:#000000;stroke-width:1;"/><text fill="#000000" font-family="sans-serif" font-size="14" lengthAdjust="spacing" textLength="102.3477" x="783.24" y="358.8857">payload: jsonb</text></g><!--class TelemetryEvent--><g id="elem_TelemetryEvent"><rect codeLine="59" fill="#F1F1F1" height="113.1875" id="TelemetryEvent" rx="2.5" ry="2.5" style="stroke:#181818;stroke-width:0.5;" width="173.0684" x="987.24" y="253"/><ellipse cx="1015.5207" cy="269" fill="#ADD1B2" rx="11" ry="11" style="stroke:#181818;stroke-width:1;"/><path d="M1019.6301,275 L1011.9113,275 L1011.9113,262.6094 L1019.6301,262.6094 L1019.6301,264.7656 L1014.3645,264.7656 L1014.3645,267.4375 L1019.1301,267.4375 L1019.1301,269.5938 L1014.3645,269.5938 L1014.3645,272.8438 L1019.6301,272.8438 L1019.6301,275 Z " fill="#000000"/><text fill="#000000" font-family="sans-serif" font-size="14" lengthAdjust="spacing" textLength="111.5557" x="1032.472" y="273.8467">TelemetryEvent</text><line style="stroke:#181818;stroke-width:0.5;" x1="988.24" x2="1159.3084" y1="285" y2="285"/><ellipse cx="998.24" cy="298.6484" fill="#000000" rx="3" ry="3" style="stroke:#000000;stroke-width:1;"/><text fill="#000000" font-family="sans-serif" font-size="14" lengthAdjust="spacing" textLength="146.3574" x="1007.24" y="301.9951">id: uuid &#171;generated&#187;</text><line style="stroke:#181818;stroke-width:1;" x1="988.24" x2="1159.3084" y1="309.2969" y2="309.2969"/><ellipse cx="998.24" cy="322.9453" fill="#000000" rx="3" ry="3" style="stroke:#000000;stroke-width:1;"/><text fill="#000000" font-family="sans-serif" font-size="14" lengthAdjust="spacing" textLength="147.0684" x="1007.24" y="326.292">created_at: datetime</text><ellipse cx="998.24" cy="339.2422" fill="#000000" rx="3" ry="3" style="stroke:#000000;stroke-width:1;"/><text fill="#000000" font-family="sans-serif" font-size="14" lengthAdjust="spacing" textLength="144.2656" x="1007.24" y="342.5889">device_id: uuid &#171;FK&#187;</text><ellipse cx="998.24" cy="355.5391" fill="#000000" rx="3" ry="3" style="stroke:#000000;stroke-width:1;"/><text fill="#000000" font-family="sans-serif" font-size="14" lengthAdjust="spacing" textLength="106.7979" x="1007.24" y="358.8857">payload : jsonb</text></g><!--link User to House--><g id="link_User_House"><path codeLine="70" d="M260.74,59 C314.96,59 274.39,131.73 251.74,181 C232.53,222.79 193.07,207.27 173.74,249 C160.2,278.24 132.51,321.5 164.74,321.5 " fill="none" id="User-House" style="stroke:#181818;stroke-width:1;"/><line style="stroke:#181818;stroke-width:1;" x1="256.74" x2="256.74" y1="63" y2="55"/><line style="stroke:#181818;stroke-width:1;" x1="259.74" x2="259.74" y1="63" y2="55"/><line style="stroke:#181818;stroke-width:1;" x1="260.74" x2="252.74" y1="59" y2="59"/><line style="stroke:#181818;stroke-width:1;" x1="164.74" x2="172.74" y1="321.5" y2="315.5"/><line style="stroke:#181818;stroke-width:1;" x1="164.74" x2="172.74" y1="321.5" y2="327.5"/><line style="stroke:#181818;stroke-width:1;" x1="164.74" x2="172.74" y1="321.5" y2="321.5"/><line style="stroke:#181818;stroke-width:1;" x1="162.74" x2="162.74" y1="317.5" y2="325.5"/></g><!--link User to Role--><g id="link_User_Role"><path codeLine="71" d="M68.74,164 C26.53,164 42.1729,218.5125 53.8529,261.2925 " fill="none" id="User-Role" style="stroke:#181818;stroke-width:1;"/><line style="stroke:#181818;stroke-width:1;" x1="72.74" x2="72.74" y1="160" y2="168"/><line style="stroke:#181818;stroke-width:1;" x1="69.74" x2="69.74" y1="160" y2="168"/><line style="stroke:#181818;stroke-width:1;" x1="68.74" x2="76.74" y1="164" y2="164"/><line style="stroke:#181818;stroke-width:1;" x1="58.7652" x2="51.0477" y1="264.0977" y2="266.2048"/><line style="stroke:#181818;stroke-width:1;" x1="57.9751" x2="50.2575" y1="261.2036" y2="263.3107"/><line style="stroke:#181818;stroke-width:1;" x1="53.8529" x2="55.96" y1="261.2925" y2="269.01"/></g><!--link Device to DeviceType--><g id="link_Device_DeviceType"><path codeLine="73" d="M554.74,124 C494.06,124 484.0312,198.3654 478.1812,253.0354 " fill="none" id="Device-DeviceType" style="stroke:#181818;stroke-width:1;"/><line style="stroke:#181818;stroke-width:1;" x1="558.74" x2="558.74" y1="120" y2="128"/><line style="stroke:#181818;stroke-width:1;" x1="555.74" x2="555.74" y1="120" y2="128"/><line style="stroke:#181818;stroke-width:1;" x1="554.74" x2="562.74" y1="124" y2="124"/><line style="stroke:#181818;stroke-width:1;" x1="481.7329" x2="473.7783" y1="257.4383" y2="256.5871"/><line style="stroke:#181818;stroke-width:1;" x1="482.0521" x2="474.0975" y1="254.4553" y2="253.6041"/><line style="stroke:#181818;stroke-width:1;" x1="478.1812" x2="477.33" y1="253.0354" y2="260.99"/></g><!--link Device to DeviceStatus--><g id="link_Device_DeviceStatus"><path codeLine="74" d="M760.74,156 C810.8,156 758.3801,210.2565 714.0701,254.9865 " fill="none" id="Device-DeviceStatus" style="stroke:#181818;stroke-width:1;"/><line style="stroke:#181818;stroke-width:1;" x1="756.74" x2="756.74" y1="160" y2="152"/><line style="stroke:#181818;stroke-width:1;" x1="759.74" x2="759.74" y1="160" y2="152"/><line style="stroke:#181818;stroke-width:1;" x1="760.74" x2="752.74" y1="156" y2="156"/><line style="stroke:#181818;stroke-width:1;" x1="714.0968" x2="708.4133" y1="260.6433" y2="255.0132"/><line style="stroke:#181818;stroke-width:1;" x1="716.2081" x2="710.5246" y1="258.512" y2="252.8819"/><line style="stroke:#181818;stroke-width:1;" x1="714.0701" x2="708.44" y1="254.9865" y2="260.67"/></g><!--link Device to DeviceEvent--><g id="link_Device_DeviceEvent"><path codeLine="75" d="M760.74,51 C820.88,51 683.6,321.5 743.74,321.5 " fill="none" id="Device-DeviceEvent" style="stroke:#181818;stroke-width:1;"/><line style="stroke:#181818;stroke-width:1;" x1="756.74" x2="756.74" y1="55" y2="47"/><line style="stroke:#181818;stroke-width:1;" x1="759.74" x2="759.74" y1="55" y2="47"/><line style="stroke:#181818;stroke-width:1;" x1="760.74" x2="752.74" y1="51" y2="51"/><line style="stroke:#181818;stroke-width:1;" x1="753.74" x2="761.74" y1="321.5" y2="315.5"/><line style="stroke:#181818;stroke-width:1;" x1="753.74" x2="761.74" y1="321.5" y2="327.5"/><line style="stroke:#181818;stroke-width:1;" x1="753.74" x2="761.74" y1="321.5" y2="321.5"/><ellipse cx="747.74" cy="321.5" fill="none" rx="4" ry="4" style="stroke:#181818;stroke-width:1;"/></g><!--link Device to House--><g id="link_Device_House"><path codeLine="76" d="M544.74,75 C429.58,75 440.54,157.4 370.74,249 C356.4,267.81 378.39,296.5 354.74,296.5 " fill="none" id="Device-House" style="stroke:#181818;stroke-width:1;"/><line style="stroke:#181818;stroke-width:1;" x1="554.74" x2="562.74" y1="75" y2="69"/><line style="stroke:#181818;stroke-width:1;" x1="554.74" x2="562.74" y1="75" y2="81"/><line style="stroke:#181818;stroke-width:1;" x1="554.74" x2="562.74" y1="75" y2="75"/><ellipse cx="548.74" cy="75" fill="none" rx="4" ry="4" style="stroke:#181818;stroke-width:1;"/><line style="stroke:#181818;stroke-width:1;" x1="350.74" x2="350.74" y1="300.5" y2="292.5"/><line style="stroke:#181818;stroke-width:1;" x1="353.74" x2="353.74" y1="300.5" y2="292.5"/><line style="stroke:#181818;stroke-width:1;" x1="354.74" x2="346.74" y1="296.5" y2="296.5"/></g><!--link Device to TelemetryEvent--><g id="link_Device_TelemetryEvent"><path codeLine="77" d="M760.74,51 C888.69,51 896.11,139.16 961.74,249 C982.65,283.98 926.99,337.5 967.74,337.5 " fill="none" id="Device-TelemetryEvent" style="stroke:#181818;stroke-width:1;"/><line style="stroke:#181818;stroke-width:1;" x1="756.74" x2="756.74" y1="55" y2="47"/><line style="stroke:#181818;stroke-width:1;" x1="759.74" x2="759.74" y1="55" y2="47"/><line style="stroke:#181818;stroke-width:1;" x1="760.74" x2="752.74" y1="51" y2="51"/><line style="stroke:#181818;stroke-width:1;" x1="977.74" x2="985.74" y1="337.5" y2="331.5"/><line style="stroke:#181818;stroke-width:1;" x1="977.74" x2="985.74" y1="337.5" y2="343.5"/><line style="stroke:#181818;stroke-width:1;" x1="977.74" x2="985.74" y1="337.5" y2="337.5"/><ellipse cx="971.74" cy="337.5" fill="none" rx="4" ry="4" style="stroke:#181818;stroke-width:1;"/></g><!--SRC=[bLJRZe8m47tdA_gy2J_G61DTsKiqgm5v9cWdsWsqf2rcYVZlMzgYnSsIq0VIcJdjd3FJ0PYYga6f186k0TBh1L62KLrJWcQp4p0GkG8odvjW63eCoql0I2f1sScvSa84I8cHWX_bV0JaKT1AKSu6_khCsVFveu0kKvOhZ8ZUALg22mbUQ7Iily4j283LfJ4SupXwJpUBE4kJA3QE9Dtjjl7UOes-3rvBc2HGuqNc0T_M3k497T3_ArMdx_Elu4AFqmYSEyh_C1WfLLsH_qAggNGLBPMztW_lr7ffNcIwjWSGJzgaobKj-xE9iSPa3rIRL5EKMvwZhwX_1JuXboFwMYmtqShiLv_9mrXkjgzhlN_c5rsqEOaWCUUczwRAcuBd-jItvEpW4Tb30IKeqKpdCf9kbARZWZmoUdN_0Omrjct3iBtQkS7O3OCBTzDe0QsToS0M4kEkSttaqVnxs3wZ8S0zfXxYKlEhtnoCxrBkm7uyq8sRsnnJ3_6uQbXUxxPV]--></g></svg>