<svg xmlns="http://www.w3.org/2000/svg" xmlns:xlink="http://www.w3.org/1999/xlink" contentStyleType="text/css" data-diagram-type="CLASS" height="777px" preserveAspectRatio="none" style="width:1247px;height:777px;background:#FFFFFF;" version="1.1" viewBox="0 0 1247 777" width="1247px" zoomAndPan="magnify"><defs/><g><!--class APIController--><g id="elem_APIController"><rect codeLine="1" fill="#F1F1F1" height="162.0781" id="APIController" rx="2.5" ry="2.5" style="stroke:#181818;stroke-width:0.5;" width="184.9355" x="607.91" y="7"/><ellipse cx="650.6364" cy="23" fill="#ADD1B2" rx="11" ry="11" style="stroke:#181818;stroke-width:1;"/><path d="M653.6052,28.6406 Q653.027,28.9375 652.3864,29.0781 Q651.7458,29.2344 651.0427,29.2344 Q648.5427,29.2344 647.2145,27.5938 Q645.902,25.9375 645.902,22.8125 Q645.902,19.6875 647.2145,18.0313 Q648.5427,16.375 651.0427,16.375 Q651.7458,16.375 652.3864,16.5313 Q653.0427,16.6875 653.6052,16.9844 L653.6052,19.7031 Q652.9802,19.125 652.3864,18.8594 Q651.7927,18.5781 651.1677,18.5781 Q649.8239,18.5781 649.1364,19.6563 Q648.4489,20.7188 648.4489,22.8125 Q648.4489,24.9063 649.1364,25.9844 Q649.8239,27.0469 651.1677,27.0469 Q651.7927,27.0469 652.3864,26.7813 Q652.9802,26.5 653.6052,25.9219 L653.6052,28.6406 Z " fill="#000000"/><text fill="#000000" font-family="sans-serif" font-size="14" lengthAdjust="spacing" textLength="91.3213" x="670.7978" y="27.8467">APIController</text><line style="stroke:#181818;stroke-width:0.5;" x1="608.91" x2="791.8455" y1="39" y2="39"/><rect fill="none" height="6" style="stroke:#C82930;stroke-width:1;" width="6" x="615.91" y="49.6484"/><text fill="#000000" font-family="sans-serif" font-size="14" lengthAdjust="spacing" textLength="158.9355" x="627.91" y="55.9951">service: DeviceService</text><line style="stroke:#181818;stroke-width:0.5;" x1="608.91" x2="791.8455" y1="63.2969" y2="63.2969"/><ellipse cx="618.91" cy="76.9453" fill="#84BE84" rx="3" ry="3" style="stroke:#038048;stroke-width:1;"/><text fill="#000000" font-family="sans-serif" font-size="14" lengthAdjust="spacing" textLength="33.0654" x="627.91" y="80.292">init()</text><ellipse cx="618.91" cy="93.2422" fill="#84BE84" rx="3" ry="3" style="stroke:#038048;stroke-width:1;"/><text fill="#000000" font-family="sans-serif" font-size="14" lengthAdjust="spacing" textLength="85.1553" x="627.91" y="96.5889">addDevice()</text><ellipse cx="618.91" cy="109.5391" fill="#84BE84" rx="3" ry="3" style="stroke:#038048;stroke-width:1;"/><text fill="#000000" font-family="sans-serif" font-size="14" lengthAdjust="spacing" textLength="81.792" x="627.91" y="112.8857">getDevice()</text><ellipse cx="618.91" cy="125.8359" fill="#84BE84" rx="3" ry="3" style="stroke:#038048;stroke-width:1;"/><text fill="#000000" font-family="sans-serif" font-size="14" lengthAdjust="spacing" textLength="108.1309" x="627.91" y="129.1826">updateDevice()</text><ellipse cx="618.91" cy="142.1328" fill="#84BE84" rx="3" ry="3" style="stroke:#038048;stroke-width:1;"/><text fill="#000000" font-family="sans-serif" font-size="14" lengthAdjust="spacing" textLength="102.9082" x="627.91" y="145.4795">deleteDevice()</text><ellipse cx="618.91" cy="158.4297" fill="#84BE84" rx="3" ry="3" style="stroke:#038048;stroke-width:1;"/><text fill="#000000" font-family="sans-serif" font-size="14" lengthAdjust="spacing" textLength="116.0879" x="627.91" y="161.7764">execCommand()</text></g><!--class DeviceService--><g id="elem_DeviceService"><rect codeLine="11" fill="#F1F1F1" height="178.375" id="DeviceService" rx="2.5" ry="2.5" style="stroke:#181818;stroke-width:0.5;" width="438.7539" x="481" y="229.08"/><ellipse cx="646.3169" cy="245.08" fill="#ADD1B2" rx="11" ry="11" style="stroke:#181818;stroke-width:1;"/><path d="M649.2856,250.7206 Q648.7075,251.0175 648.0669,251.1581 Q647.4263,251.3144 646.7231,251.3144 Q644.2231,251.3144 642.895,249.6738 Q641.5825,248.0175 641.5825,244.8925 Q641.5825,241.7675 642.895,240.1113 Q644.2231,238.455 646.7231,238.455 Q647.4263,238.455 648.0669,238.6113 Q648.7231,238.7675 649.2856,239.0644 L649.2856,241.7831 Q648.6606,241.205 648.0669,240.9394 Q647.4731,240.6581 646.8481,240.6581 Q645.5044,240.6581 644.8169,241.7363 Q644.1294,242.7988 644.1294,244.8925 Q644.1294,246.9863 644.8169,248.0644 Q645.5044,249.1269 646.8481,249.1269 Q647.4731,249.1269 648.0669,248.8613 Q648.6606,248.58 649.2856,248.0019 L649.2856,250.7206 Z " fill="#000000"/><text fill="#000000" font-family="sans-serif" font-size="14" lengthAdjust="spacing" textLength="99.6201" x="666.8169" y="249.9267">DeviceService</text><line style="stroke:#181818;stroke-width:0.5;" x1="482" x2="918.7539" y1="261.08" y2="261.08"/><rect fill="none" height="6" style="stroke:#C82930;stroke-width:1;" width="6" x="489" y="271.7284"/><text fill="#000000" font-family="sans-serif" font-size="14" lengthAdjust="spacing" textLength="253.1758" x="501" y="278.0751">deviceRepository: DeviceRepository</text><rect fill="none" height="6" style="stroke:#C82930;stroke-width:1;" width="6" x="489" y="288.0253"/><text fill="#000000" font-family="sans-serif" font-size="14" lengthAdjust="spacing" textLength="239.292" x="501" y="294.372">eventRepository: EventRepository</text><line style="stroke:#181818;stroke-width:0.5;" x1="482" x2="918.7539" y1="301.6738" y2="301.6738"/><ellipse cx="492" cy="315.3222" fill="#84BE84" rx="3" ry="3" style="stroke:#038048;stroke-width:1;"/><text fill="#000000" font-family="sans-serif" font-size="14" lengthAdjust="spacing" textLength="245.2324" x="501" y="318.6689">addDevice(device: Device): Device</text><ellipse cx="492" cy="331.6191" fill="#84BE84" rx="3" ry="3" style="stroke:#038048;stroke-width:1;"/><text fill="#000000" font-family="sans-serif" font-size="14" lengthAdjust="spacing" textLength="248.7871" x="501" y="334.9657">getDevice(deviceId: String): Device</text><ellipse cx="492" cy="347.9159" fill="#84BE84" rx="3" ry="3" style="stroke:#038048;stroke-width:1;"/><text fill="#000000" font-family="sans-serif" font-size="14" lengthAdjust="spacing" textLength="249.9561" x="501" y="351.2626">updateDevice(device: Device): void</text><ellipse cx="492" cy="364.2128" fill="#84BE84" rx="3" ry="3" style="stroke:#038048;stroke-width:1;"/><text fill="#000000" font-family="sans-serif" font-size="14" lengthAdjust="spacing" textLength="254.6387" x="501" y="367.5595">removeDevice(deviceId: UUID): void</text><ellipse cx="492" cy="380.5097" fill="#84BE84" rx="3" ry="3" style="stroke:#038048;stroke-width:1;"/><text fill="#000000" font-family="sans-serif" font-size="14" lengthAdjust="spacing" textLength="412.7539" x="501" y="383.8564">sendCommand(deviceId: UUID, payload: JSONObject): void</text><ellipse cx="492" cy="396.8066" fill="#84BE84" rx="3" ry="3" style="stroke:#038048;stroke-width:1;"/><text fill="#000000" font-family="sans-serif" font-size="14" lengthAdjust="spacing" textLength="134.5723" x="501" y="400.1532">createEvent(): void</text></g><!--class DeviceInterface--><g id="elem_DeviceInterface"><rect codeLine="22" fill="#F1F1F1" height="64.2969" id="DeviceInterface" rx="2.5" ry="2.5" style="stroke:#181818;stroke-width:0.5;" width="438.7539" x="7" y="286.12"/><ellipse cx="166.8481" cy="302.12" fill="#B4A7E5" rx="11" ry="11" style="stroke:#181818;stroke-width:1;"/><path d="M162.77,297.8856 L162.77,295.7294 L170.1606,295.7294 L170.1606,297.8856 L167.6919,297.8856 L167.6919,305.9638 L170.1606,305.9638 L170.1606,308.12 L162.77,308.12 L162.77,305.9638 L165.2388,305.9638 L165.2388,297.8856 L162.77,297.8856 Z " fill="#000000"/><text fill="#000000" font-family="sans-serif" font-size="14" font-style="italic" lengthAdjust="spacing" textLength="110.5576" x="187.3481" y="306.9667">DeviceInterface</text><line style="stroke:#181818;stroke-width:0.5;" x1="8" x2="444.7539" y1="318.12" y2="318.12"/><line style="stroke:#181818;stroke-width:0.5;" x1="8" x2="444.7539" y1="326.12" y2="326.12"/><ellipse cx="18" cy="339.7684" fill="#84BE84" rx="3" ry="3" style="stroke:#038048;stroke-width:1;"/><text fill="#000000" font-family="sans-serif" font-size="14" lengthAdjust="spacing" textLength="412.7539" x="27" y="343.1151">sendCommand(deviceId: UUID, payload: JSONObject): void</text></g><!--class HeatingDevice--><g id="elem_HeatingDevice"><rect codeLine="27" fill="#F1F1F1" height="96.8906" id="HeatingDevice" rx="2.5" ry="2.5" style="stroke:#181818;stroke-width:0.5;" width="149.6895" x="127.53" y="483.75"/><ellipse cx="149.2585" cy="499.75" fill="#ADD1B2" rx="11" ry="11" style="stroke:#181818;stroke-width:1;"/><path d="M152.2272,505.3906 Q151.6491,505.6875 151.0085,505.8281 Q150.3678,505.9844 149.6647,505.9844 Q147.1647,505.9844 145.8366,504.3438 Q144.5241,502.6875 144.5241,499.5625 Q144.5241,496.4375 145.8366,494.7813 Q147.1647,493.125 149.6647,493.125 Q150.3678,493.125 151.0085,493.2813 Q151.6647,493.4375 152.2272,493.7344 L152.2272,496.4531 Q151.6022,495.875 151.0085,495.6094 Q150.4147,495.3281 149.7897,495.3281 Q148.446,495.3281 147.7585,496.4063 Q147.071,497.4688 147.071,499.5625 Q147.071,501.6563 147.7585,502.7344 Q148.446,503.7969 149.7897,503.7969 Q150.4147,503.7969 151.0085,503.5313 Q151.6022,503.25 152.2272,502.6719 L152.2272,505.3906 Z " fill="#000000"/><text fill="#000000" font-family="sans-serif" font-size="14" lengthAdjust="spacing" textLength="102.7373" x="164.7537" y="504.5967">HeatingDevice</text><line style="stroke:#181818;stroke-width:0.5;" x1="128.53" x2="276.2195" y1="515.75" y2="515.75"/><line style="stroke:#181818;stroke-width:0.5;" x1="128.53" x2="276.2195" y1="523.75" y2="523.75"/><ellipse cx="138.53" cy="537.3984" fill="#84BE84" rx="3" ry="3" style="stroke:#038048;stroke-width:1;"/><text fill="#000000" font-family="sans-serif" font-size="14" lengthAdjust="spacing" textLength="58.3789" x="147.53" y="540.7451">enable()</text><ellipse cx="138.53" cy="553.6953" fill="#84BE84" rx="3" ry="3" style="stroke:#038048;stroke-width:1;"/><text fill="#000000" font-family="sans-serif" font-size="14" lengthAdjust="spacing" textLength="60.9629" x="147.53" y="557.042">disable()</text><ellipse cx="138.53" cy="569.9922" fill="#84BE84" rx="3" ry="3" style="stroke:#038048;stroke-width:1;"/><text fill="#000000" font-family="sans-serif" font-size="14" lengthAdjust="spacing" textLength="123.6895" x="147.53" y="573.3389">setTemperature()</text></g><!--class LightDevice--><g id="elem_LightDevice"><rect codeLine="33" fill="#F1F1F1" height="80.5938" id="LightDevice" rx="2.5" ry="2.5" style="stroke:#181818;stroke-width:0.5;" width="114.8174" x="311.97" y="491.9"/><ellipse cx="326.97" cy="507.9" fill="#ADD1B2" rx="11" ry="11" style="stroke:#181818;stroke-width:1;"/><path d="M329.9388,513.5406 Q329.3606,513.8375 328.72,513.9781 Q328.0794,514.1344 327.3763,514.1344 Q324.8763,514.1344 323.5481,512.4938 Q322.2356,510.8375 322.2356,507.7125 Q322.2356,504.5875 323.5481,502.9313 Q324.8763,501.275 327.3763,501.275 Q328.0794,501.275 328.72,501.4313 Q329.3763,501.5875 329.9388,501.8844 L329.9388,504.6031 Q329.3138,504.025 328.72,503.7594 Q328.1263,503.4781 327.5013,503.4781 Q326.1575,503.4781 325.47,504.5563 Q324.7825,505.6188 324.7825,507.7125 Q324.7825,509.8063 325.47,510.8844 Q326.1575,511.9469 327.5013,511.9469 Q328.1263,511.9469 328.72,511.6813 Q329.3138,511.4 329.9388,510.8219 L329.9388,513.5406 Z " fill="#000000"/><text fill="#000000" font-family="sans-serif" font-size="14" lengthAdjust="spacing" textLength="82.8174" x="340.97" y="512.7467">LightDevice</text><line style="stroke:#181818;stroke-width:0.5;" x1="312.97" x2="425.7874" y1="523.9" y2="523.9"/><line style="stroke:#181818;stroke-width:0.5;" x1="312.97" x2="425.7874" y1="531.9" y2="531.9"/><ellipse cx="322.97" cy="545.5484" fill="#84BE84" rx="3" ry="3" style="stroke:#038048;stroke-width:1;"/><text fill="#000000" font-family="sans-serif" font-size="14" lengthAdjust="spacing" textLength="58.3789" x="331.97" y="548.8951">enable()</text><ellipse cx="322.97" cy="561.8453" fill="#84BE84" rx="3" ry="3" style="stroke:#038048;stroke-width:1;"/><text fill="#000000" font-family="sans-serif" font-size="14" lengthAdjust="spacing" textLength="60.9629" x="331.97" y="565.192">disable()</text></g><!--class GateDevice--><g id="elem_GateDevice"><rect codeLine="38" fill="#F1F1F1" height="80.5938" id="GateDevice" rx="2.5" ry="2.5" style="stroke:#181818;stroke-width:0.5;" width="113.4092" x="461.67" y="491.9"/><ellipse cx="476.67" cy="507.9" fill="#ADD1B2" rx="11" ry="11" style="stroke:#181818;stroke-width:1;"/><path d="M479.6388,513.5406 Q479.0606,513.8375 478.42,513.9781 Q477.7794,514.1344 477.0763,514.1344 Q474.5763,514.1344 473.2481,512.4938 Q471.9356,510.8375 471.9356,507.7125 Q471.9356,504.5875 473.2481,502.9313 Q474.5763,501.275 477.0763,501.275 Q477.7794,501.275 478.42,501.4313 Q479.0763,501.5875 479.6388,501.8844 L479.6388,504.6031 Q479.0138,504.025 478.42,503.7594 Q477.8263,503.4781 477.2013,503.4781 Q475.8575,503.4781 475.17,504.5563 Q474.4825,505.6188 474.4825,507.7125 Q474.4825,509.8063 475.17,510.8844 Q475.8575,511.9469 477.2013,511.9469 Q477.8263,511.9469 478.42,511.6813 Q479.0138,511.4 479.6388,510.8219 L479.6388,513.5406 Z " fill="#000000"/><text fill="#000000" font-family="sans-serif" font-size="14" lengthAdjust="spacing" textLength="81.4092" x="490.67" y="512.7467">GateDevice</text><line style="stroke:#181818;stroke-width:0.5;" x1="462.67" x2="574.0792" y1="523.9" y2="523.9"/><line style="stroke:#181818;stroke-width:0.5;" x1="462.67" x2="574.0792" y1="531.9" y2="531.9"/><ellipse cx="472.67" cy="545.5484" fill="#84BE84" rx="3" ry="3" style="stroke:#038048;stroke-width:1;"/><text fill="#000000" font-family="sans-serif" font-size="14" lengthAdjust="spacing" textLength="45.8623" x="481.67" y="548.8951">open()</text><ellipse cx="472.67" cy="561.8453" fill="#84BE84" rx="3" ry="3" style="stroke:#038048;stroke-width:1;"/><text fill="#000000" font-family="sans-serif" font-size="14" lengthAdjust="spacing" textLength="46.9834" x="481.67" y="565.192">close()</text></g><!--class CCTVDevice--><g id="elem_CCTVDevice"><rect codeLine="43" fill="#F1F1F1" height="129.4844" id="CCTVDevice" rx="2.5" ry="2.5" style="stroke:#181818;stroke-width:0.5;" width="140.4268" x="610.16" y="467.46"/><ellipse cx="635.4507" cy="483.46" fill="#ADD1B2" rx="11" ry="11" style="stroke:#181818;stroke-width:1;"/><path d="M638.4194,489.1006 Q637.8413,489.3975 637.2007,489.5381 Q636.56,489.6944 635.8569,489.6944 Q633.3569,489.6944 632.0288,488.0538 Q630.7163,486.3975 630.7163,483.2725 Q630.7163,480.1475 632.0288,478.4913 Q633.3569,476.835 635.8569,476.835 Q636.56,476.835 637.2007,476.9913 Q637.8569,477.1475 638.4194,477.4444 L638.4194,480.1631 Q637.7944,479.585 637.2007,479.3194 Q636.6069,479.0381 635.9819,479.0381 Q634.6382,479.0381 633.9507,480.1163 Q633.2632,481.1788 633.2632,483.2725 Q633.2632,485.3663 633.9507,486.4444 Q634.6382,487.5069 635.9819,487.5069 Q636.6069,487.5069 637.2007,487.2413 Q637.7944,486.96 638.4194,486.3819 L638.4194,489.1006 Z " fill="#000000"/><text fill="#000000" font-family="sans-serif" font-size="14" lengthAdjust="spacing" textLength="85.5586" x="651.7375" y="488.3067">CCTVDevice</text><line style="stroke:#181818;stroke-width:0.5;" x1="611.16" x2="749.5868" y1="499.46" y2="499.46"/><line style="stroke:#181818;stroke-width:0.5;" x1="611.16" x2="749.5868" y1="507.46" y2="507.46"/><ellipse cx="621.16" cy="521.1084" fill="#84BE84" rx="3" ry="3" style="stroke:#038048;stroke-width:1;"/><text fill="#000000" font-family="sans-serif" font-size="14" lengthAdjust="spacing" textLength="58.3789" x="630.16" y="524.4551">enable()</text><ellipse cx="621.16" cy="537.4053" fill="#84BE84" rx="3" ry="3" style="stroke:#038048;stroke-width:1;"/><text fill="#000000" font-family="sans-serif" font-size="14" lengthAdjust="spacing" textLength="60.9629" x="630.16" y="540.752">disable()</text><ellipse cx="621.16" cy="553.7022" fill="#84BE84" rx="3" ry="3" style="stroke:#038048;stroke-width:1;"/><text fill="#000000" font-family="sans-serif" font-size="14" lengthAdjust="spacing" textLength="53.416" x="630.16" y="557.0489">rotate()</text><ellipse cx="621.16" cy="569.9991" fill="#84BE84" rx="3" ry="3" style="stroke:#038048;stroke-width:1;"/><text fill="#000000" font-family="sans-serif" font-size="14" lengthAdjust="spacing" textLength="114.4268" x="630.16" y="573.3457">startRecording()</text><ellipse cx="621.16" cy="586.2959" fill="#84BE84" rx="3" ry="3" style="stroke:#038048;stroke-width:1;"/><text fill="#000000" font-family="sans-serif" font-size="14" lengthAdjust="spacing" textLength="112.0547" x="630.16" y="589.6426">stopRecording()</text></g><!--class EventRelay--><g id="elem_EventRelay"><rect codeLine="51" fill="#F1F1F1" height="96.8906" id="EventRelay" rx="2.5" ry="2.5" style="stroke:#181818;stroke-width:0.5;" width="265.292" x="974.73" y="269.83"/><ellipse cx="1063.5254" cy="285.83" fill="#ADD1B2" rx="11" ry="11" style="stroke:#181818;stroke-width:1;"/><path d="M1066.4942,291.4706 Q1065.916,291.7675 1065.2754,291.9081 Q1064.6348,292.0644 1063.9317,292.0644 Q1061.4317,292.0644 1060.1035,290.4238 Q1058.791,288.7675 1058.791,285.6425 Q1058.791,282.5175 1060.1035,280.8613 Q1061.4317,279.205 1063.9317,279.205 Q1064.6348,279.205 1065.2754,279.3613 Q1065.9317,279.5175 1066.4942,279.8144 L1066.4942,282.5331 Q1065.8692,281.955 1065.2754,281.6894 Q1064.6817,281.4081 1064.0567,281.4081 Q1062.7129,281.4081 1062.0254,282.4863 Q1061.3379,283.5488 1061.3379,285.6425 Q1061.3379,287.7363 1062.0254,288.8144 Q1062.7129,289.8769 1064.0567,289.8769 Q1064.6817,289.8769 1065.2754,289.6113 Q1065.8692,289.33 1066.4942,288.7519 L1066.4942,291.4706 Z " fill="#000000"/><text fill="#000000" font-family="sans-serif" font-size="14" lengthAdjust="spacing" textLength="79.2012" x="1084.0254" y="290.6767">EventRelay</text><line style="stroke:#181818;stroke-width:0.5;" x1="975.73" x2="1239.022" y1="301.83" y2="301.83"/><rect fill="none" height="6" style="stroke:#C82930;stroke-width:1;" width="6" x="982.73" y="312.4784"/><text fill="#000000" font-family="sans-serif" font-size="14" lengthAdjust="spacing" textLength="239.292" x="994.73" y="318.8251">eventRepository: EventRepository</text><line style="stroke:#181818;stroke-width:0.5;" x1="975.73" x2="1239.022" y1="326.1269" y2="326.1269"/><ellipse cx="985.73" cy="339.7753" fill="#84BE84" rx="3" ry="3" style="stroke:#038048;stroke-width:1;"/><text fill="#000000" font-family="sans-serif" font-size="14" lengthAdjust="spacing" textLength="217.0273" x="994.73" y="343.122">fetch(): ArrayList[DeviceEvent]</text><ellipse cx="985.73" cy="356.0722" fill="#84BE84" rx="3" ry="3" style="stroke:#038048;stroke-width:1;"/><text fill="#000000" font-family="sans-serif" font-size="14" lengthAdjust="spacing" textLength="171.3701" x="994.73" y="359.4189">send(DeviceEvent): void</text></g><!--class Device--><g id="elem_Device"><rect codeLine="57" fill="#F1F1F1" height="113.1875" id="Device" rx="2.5" ry="2.5" style="stroke:#181818;stroke-width:0.5;" width="171.0996" x="785.83" y="475.61"/><ellipse cx="843.1904" cy="491.61" fill="#ADD1B2" rx="11" ry="11" style="stroke:#181818;stroke-width:1;"/><path d="M846.1591,497.2506 Q845.581,497.5475 844.9404,497.6881 Q844.2997,497.8444 843.5966,497.8444 Q841.0966,497.8444 839.7685,496.2038 Q838.456,494.5475 838.456,491.4225 Q838.456,488.2975 839.7685,486.6413 Q841.0966,484.985 843.5966,484.985 Q844.2997,484.985 844.9404,485.1413 Q845.5966,485.2975 846.1591,485.5944 L846.1591,488.3131 Q845.5341,487.735 844.9404,487.4694 Q844.3466,487.1881 843.7216,487.1881 Q842.3779,487.1881 841.6904,488.2663 Q841.0029,489.3288 841.0029,491.4225 Q841.0029,493.5163 841.6904,494.5944 Q842.3779,495.6569 843.7216,495.6569 Q844.3466,495.6569 844.9404,495.3913 Q845.5341,495.11 846.1591,494.5319 L846.1591,497.2506 Z " fill="#000000"/><text fill="#000000" font-family="sans-serif" font-size="14" lengthAdjust="spacing" textLength="47.8789" x="863.6904" y="496.4567">Device</text><line style="stroke:#181818;stroke-width:0.5;" x1="786.83" x2="955.9296" y1="507.61" y2="507.61"/><rect fill="none" height="6" style="stroke:#C82930;stroke-width:1;" width="6" x="793.83" y="518.2584"/><text fill="#000000" font-family="sans-serif" font-size="14" lengthAdjust="spacing" textLength="57.3467" x="805.83" y="524.6051">id: UUID</text><rect fill="none" height="6" style="stroke:#C82930;stroke-width:1;" width="6" x="793.83" y="534.5553"/><text fill="#000000" font-family="sans-serif" font-size="14" lengthAdjust="spacing" textLength="90.6514" x="805.83" y="540.902">name: String</text><rect fill="none" height="6" style="stroke:#C82930;stroke-width:1;" width="6" x="793.83" y="550.8522"/><text fill="#000000" font-family="sans-serif" font-size="14" lengthAdjust="spacing" textLength="122.6572" x="805.83" y="557.1989">type: DeviceType</text><rect fill="none" height="6" style="stroke:#C82930;stroke-width:1;" width="6" x="793.83" y="567.1491"/><text fill="#000000" font-family="sans-serif" font-size="14" lengthAdjust="spacing" textLength="145.0996" x="805.83" y="573.4957">settings: JSONObject</text><line style="stroke:#181818;stroke-width:0.5;" x1="786.83" x2="955.9296" y1="580.7975" y2="580.7975"/></g><!--class DeviceEvent--><g id="elem_DeviceEvent"><rect codeLine="65" fill="#F1F1F1" height="113.1875" id="DeviceEvent" rx="2.5" ry="2.5" style="stroke:#181818;stroke-width:0.5;" width="231.7002" x="991.53" y="475.61"/><ellipse cx="1059.1374" cy="491.61" fill="#ADD1B2" rx="11" ry="11" style="stroke:#181818;stroke-width:1;"/><path d="M1062.1062,497.2506 Q1061.528,497.5475 1060.8874,497.6881 Q1060.2468,497.8444 1059.5437,497.8444 Q1057.0437,497.8444 1055.7155,496.2038 Q1054.403,494.5475 1054.403,491.4225 Q1054.403,488.2975 1055.7155,486.6413 Q1057.0437,484.985 1059.5437,484.985 Q1060.2468,484.985 1060.8874,485.1413 Q1061.5437,485.2975 1062.1062,485.5944 L1062.1062,488.3131 Q1061.4812,487.735 1060.8874,487.4694 Q1060.2937,487.1881 1059.6687,487.1881 Q1058.3249,487.1881 1057.6374,488.2663 Q1056.9499,489.3288 1056.9499,491.4225 Q1056.9499,493.5163 1057.6374,494.5944 Q1058.3249,495.6569 1059.6687,495.6569 Q1060.2937,495.6569 1060.8874,495.3913 Q1061.4812,495.11 1062.1062,494.5319 L1062.1062,497.2506 Z " fill="#000000"/><text fill="#000000" font-family="sans-serif" font-size="14" lengthAdjust="spacing" textLength="87.9854" x="1079.6374" y="496.4567">DeviceEvent</text><line style="stroke:#181818;stroke-width:0.5;" x1="992.53" x2="1222.2302" y1="507.61" y2="507.61"/><rect fill="none" height="6" style="stroke:#C82930;stroke-width:1;" width="6" x="999.53" y="518.2584"/><text fill="#000000" font-family="sans-serif" font-size="14" lengthAdjust="spacing" textLength="188.2959" x="1011.53" y="524.6051">createdAt: OffsetDateTime</text><rect fill="none" height="6" style="stroke:#C82930;stroke-width:1;" width="6" x="999.53" y="534.5553"/><text fill="#000000" font-family="sans-serif" font-size="14" lengthAdjust="spacing" textLength="103.5713" x="1011.53" y="540.902">deviceId: UUID</text><rect fill="none" height="6" style="stroke:#C82930;stroke-width:1;" width="6" x="999.53" y="550.8522"/><text fill="#000000" font-family="sans-serif" font-size="14" lengthAdjust="spacing" textLength="205.7002" x="1011.53" y="557.1989">eventType: DeviceEventType</text><rect fill="none" height="6" style="stroke:#C82930;stroke-width:1;" width="6" x="999.53" y="567.1491"/><text fill="#000000" font-family="sans-serif" font-size="14" lengthAdjust="spacing" textLength="144.9424" x="1011.53" y="573.4957">payload: JSONObject</text><line style="stroke:#181818;stroke-width:0.5;" x1="992.53" x2="1222.2302" y1="580.7975" y2="580.7975"/></g><!--class DeviceEventType--><g id="elem_DeviceEventType"><rect codeLine="72" fill="#F1F1F1" height="113.1875" id="DeviceEventType" rx="2.5" ry="2.5" style="stroke:#181818;stroke-width:0.5;" width="154.3223" x="1030.22" y="656.94"/><ellipse cx="1045.22" cy="672.94" fill="#EB937F" rx="11" ry="11" style="stroke:#181818;stroke-width:1;"/><path d="M1049.3294,678.94 L1041.6106,678.94 L1041.6106,666.5494 L1049.3294,666.5494 L1049.3294,668.7056 L1044.0638,668.7056 L1044.0638,671.3775 L1048.8294,671.3775 L1048.8294,673.5337 L1044.0638,673.5337 L1044.0638,676.7837 L1049.3294,676.7837 L1049.3294,678.94 Z " fill="#000000"/><text fill="#000000" font-family="sans-serif" font-size="14" lengthAdjust="spacing" textLength="122.3223" x="1059.22" y="677.7867">DeviceEventType</text><line style="stroke:#181818;stroke-width:0.5;" x1="1031.22" x2="1183.5423" y1="688.94" y2="688.94"/><text fill="#000000" font-family="sans-serif" font-size="14" lengthAdjust="spacing" textLength="31.1377" x="1036.22" y="705.9351">ADD</text><text fill="#000000" font-family="sans-serif" font-size="14" lengthAdjust="spacing" textLength="60.0947" x="1036.22" y="722.232">REMOVE</text><text fill="#000000" font-family="sans-serif" font-size="14" lengthAdjust="spacing" textLength="56.4443" x="1036.22" y="738.5289">UPDATE</text><text fill="#000000" font-family="sans-serif" font-size="14" lengthAdjust="spacing" textLength="53.6689" x="1036.22" y="754.8257">DELETE</text><line style="stroke:#181818;stroke-width:0.5;" x1="1031.22" x2="1183.5423" y1="762.1275" y2="762.1275"/></g><!--reverse link DeviceInterface to HeatingDevice--><g id="link_DeviceInterface_HeatingDevice"><path d="M220.8113,368.4253 C216.8413,403.4253 212.4,442.67 207.8,483.31 " fill="none" id="DeviceInterface-backto-HeatingDevice" style="stroke:#181818;stroke-width:1;stroke-dasharray:7.0,7.0;"/><polygon fill="none" points="222.84,350.54,214.8495,367.7491,226.7731,369.1015,222.84,350.54" style="stroke:#181818;stroke-width:1;"/></g><!--reverse link DeviceInterface to LightDevice--><g id="link_DeviceInterface_LightDevice"><path d="M257.5482,365.4608 C282.7982,402.8808 315.04,450.67 342.58,491.48 " fill="none" id="DeviceInterface-backto-LightDevice" style="stroke:#181818;stroke-width:1;stroke-dasharray:7.0,7.0;"/><polygon fill="none" points="247.48,350.54,252.5746,368.8169,262.5218,362.1048,247.48,350.54" style="stroke:#181818;stroke-width:1;"/></g><!--reverse link DeviceInterface to GateDevice--><g id="link_DeviceInterface_GateDevice"><path d="M291.1074,360.4351 C336.0474,389.4151 388.45,424.58 444.38,467.46 C454.2,474.99 464.44,483.41 474.06,491.6 " fill="none" id="DeviceInterface-backto-GateDevice" style="stroke:#181818;stroke-width:1;stroke-dasharray:7.0,7.0;"/><polygon fill="none" points="275.98,350.68,287.8557,365.4775,294.3591,355.3926,275.98,350.68" style="stroke:#181818;stroke-width:1;"/></g><!--reverse link DeviceInterface to CCTVDevice--><g id="link_DeviceInterface_CCTVDevice"><path d="M327.8375,357.1639 C419.4875,391.8039 542.45,439.81 592.38,467.46 C598.15,470.66 603.99,474.17 609.78,477.86 " fill="none" id="DeviceInterface-backto-CCTVDevice" style="stroke:#181818;stroke-width:1;stroke-dasharray:7.0,7.0;"/><polygon fill="none" points="311,350.8,325.7162,362.7764,329.9588,351.5514,311,350.8" style="stroke:#181818;stroke-width:1;"/></g><!--link APIController to DeviceService--><g id="link_APIController_DeviceService"><path codeLine="79" d="M700.38,169.51 C700.38,188.63 700.38,203.14 700.38,222.6 " fill="none" id="APIController-to-DeviceService" style="stroke:#181818;stroke-width:1;"/><polygon fill="#181818" points="700.38,228.6,704.38,219.6,700.38,223.6,696.38,219.6,700.38,228.6" style="stroke:#181818;stroke-width:1;"/></g><!--link DeviceService to HeatingDevice--><g id="link_DeviceService_HeatingDevice"><path codeLine="81" d="M480.6,401.18 C474.8,403.3 469.05,405.4 463.38,407.46 C388.47,434.69 365.31,431.11 294.38,467.46 C285.21,472.15 280.9603,474.4162 271.9503,480.1562 " fill="none" id="DeviceService-to-HeatingDevice" style="stroke:#181818;stroke-width:1;"/><polygon fill="#181818" points="266.89,483.38,276.6297,481.9179,271.107,480.6935,272.3313,475.1707,266.89,483.38" style="stroke:#181818;stroke-width:1;"/></g><!--link DeviceService to LightDevice--><g id="link_DeviceService_LightDevice"><path codeLine="82" d="M537.17,407.86 C505.73,426.55 473.54,446.88 444.38,467.46 C434.05,474.75 428.0251,479.3039 418.1351,487.5639 " fill="none" id="DeviceService-to-LightDevice" style="stroke:#181818;stroke-width:1;"/><polygon fill="#181818" points="413.53,491.41,423.0018,488.7109,417.3676,488.2049,417.8736,482.5707,413.53,491.41" style="stroke:#181818;stroke-width:1;"/></g><!--link DeviceService to GateDevice--><g id="link_DeviceService_GateDevice"><path codeLine="83" d="M624.25,407.92 C599.21,437.07 576.5503,463.4692 556.2803,487.0592 " fill="none" id="DeviceService-to-GateDevice" style="stroke:#181818;stroke-width:1;"/><polygon fill="#181818" points="552.37,491.61,561.2693,487.3907,555.6286,487.8177,555.2016,482.177,552.37,491.61" style="stroke:#181818;stroke-width:1;"/></g><!--link DeviceService to CCTVDevice--><g id="link_DeviceService_CCTVDevice"><path codeLine="84" d="M692.01,407.92 C690.14,427.77 688.7543,442.4766 686.9943,461.1066 " fill="none" id="DeviceService-to-CCTVDevice" style="stroke:#181818;stroke-width:1;"/><polygon fill="#181818" points="686.43,467.08,691.2587,458.4961,686.9003,462.1022,683.2942,457.7437,686.43,467.08" style="stroke:#181818;stroke-width:1;"/></g><!--link DeviceService to DeviceEvent--><g id="link_DeviceService_DeviceEvent"><path codeLine="86" d="M870.62,407.92 C914.41,430.72 954.9782,451.8489 994.5782,472.4689 " fill="none" id="DeviceService-to-DeviceEvent" style="stroke:#181818;stroke-width:1;stroke-dasharray:7.0,7.0;"/><polygon fill="#181818" points="999.9,475.24,993.7647,467.5355,995.4652,472.9308,990.07,474.6312,999.9,475.24" style="stroke:#181818;stroke-width:1;"/></g><!--link EventRelay to DeviceEvent--><g id="link_EventRelay_DeviceEvent"><path codeLine="87" d="M1107.38,367.1 C1107.38,399.2 1107.38,435.63 1107.38,469.29 " fill="none" id="EventRelay-to-DeviceEvent" style="stroke:#181818;stroke-width:1;stroke-dasharray:7.0,7.0;"/><polygon fill="#181818" points="1107.38,475.29,1111.38,466.29,1107.38,470.29,1103.38,466.29,1107.38,475.29" style="stroke:#181818;stroke-width:1;"/></g><!--link DeviceService to Device--><g id="link_DeviceService_Device"><path codeLine="88" d="M771.91,407.92 C790.3,430.72 805.812,449.9507 822.452,470.5707 " fill="none" id="DeviceService-to-Device" style="stroke:#181818;stroke-width:1;stroke-dasharray:7.0,7.0;"/><polygon fill="#181818" points="826.22,475.24,823.6808,465.7241,823.08,471.3489,817.4551,470.7481,826.22,475.24" style="stroke:#181818;stroke-width:1;"/></g><!--link DeviceEvent to DeviceEventType--><g id="link_DeviceEvent_DeviceEventType"><path codeLine="89" d="M1107.38,588.96 C1107.38,610.45 1107.38,628.99 1107.38,650.5 " fill="none" id="DeviceEvent-to-DeviceEventType" style="stroke:#181818;stroke-width:1;"/><polygon fill="#181818" points="1107.38,656.5,1111.38,647.5,1107.38,651.5,1103.38,647.5,1107.38,656.5" style="stroke:#181818;stroke-width:1;"/></g><!--SRC=[hLJDRjim3BxxANHCiQKFa4C18pOs3sbJD4ulmmwgnQGQRCcGb616iNSVBVzHJWeKGtsn-97YdpwoABcrB7xCrbeveyiI37kB67vBPi6SPG4hba3xttMYLtvXKactkEa5BaHdCo97S3FaL0lkO0OAAE42X3zGh7LLSIKG-nj5XKyooC8dkSJxhV04jRRIQTCCkKw8DuCpA4UjqX28mY8whuElc-4GXOLrLfbOiPqpKXr3kw3S2uTdBOKtCr3fCrnutE-pX9fPK69eIMZrbTMyAJL7ySTk-x1z-Gs5erSB0vY8BtWnuDXJgHoO0yTETi6pKNxhd-4_OwBl_i6-Os3iI-UVoQekeS8ixBiHGV6Naf13sa2su7AeQZ3SdGnGQcpayTLzGfpHuRVnxJxYJzUWHcz5gMtWQxtEdp-j1qOxJ6rgYUC6ULne8x3J1DOrHSTSUjwNlEa7w4EJSG1NlBRaYOtXpKPQzxDBtnl_6Xcw82YX0ntVFgpicUG5nIiOXiW3hgd7OSdn77NRoBLiifHpX6maT1-Z8xw8tOfj3mUydg2Oomh8viXe7huNEOcT3e1NN-5y6n_KgPhR-mpYf7NxbDvldrCyx1-JE6yFIRf9yO1NmxMxNDxDDcqKhhpM89YfAteo2LUq4wslA2UUpWFVtjxH2YF2ehdglOiHVP-fqh5Z_m00]--></g></svg>